/* XPM */
static char * appleseed_logo_xpm[] = {
"64 61 11 1",
" 	c None",
".	c #C9C9C9",
"+	c #C8C8C8",
"@	c #C7C7C7",
"#	c #FF5A11",
"$	c #FF5A12",
"%	c #FF5B11",
"&	c #FF5911",
"*	c #FF5912",
"=	c #FF5910",
"-	c #FF5A10",
"                                                                ",
"                               .+                               ",
"                               ++                               ",
"                              ++++                              ",
"                              ++++                              ",
"                             ++++++                             ",
"                             ++++++                             ",
"                            @+++++++                            ",
"                            ++++++++                            ",
"                            ++++++++                            ",
"                           ++++++++++                           ",
"                           ++++++++++                           ",
"                          +++++++++++                           ",
"                          .+++++++++++                          ",
"                          +++++++++++.                          ",
"                          ++++++++++++                          ",
"                          ++++++++++++                          ",
"                          ++++++++++++                          ",
"                         ++++++++++++++                         ",
"                          ++++++++++++                          ",
"                          ++++++++++++                          ",
"                          ++++++++++++                          ",
"      +++++.++++.+        ++++++++++++        #############     ",
".+++++++++++++++++++.      ++++++++++      $###################%",
" .++++++++++++++++++++.    ++++++++++    ###################### ",
"  ++++++++++++++++++++++    ++++++++    #####################&  ",
"   @+++++++++++++++++++++    ++++++    ######################   ",
"    +++++++++++++++++++++              ####################*    ",
"     @++++++++++++++++++++            ####################$     ",
"      @+++++++++++++++++++            ###################       ",
"        ++++++++++++++++++            ##################        ",
"         .++++++++++++++++            #################         ",
"          +++++++++++++++              ##############*          ",
"            +++++++++++++              #############            ",
"              ++++++++++                =########-              ",
"                 ++++                      ##&%                 ",
"                                                                ",
"                                                                ",
"                      .++++          ++++.                      ",
"                     +++++++@      @+++++++                     ",
"                   ++++++++++.    .++++++++++                   ",
"                  ++++++++++++    ++++++++++++                  ",
"                  ++++++++++++    ++++++++++++                  ",
"                 +++++++++++++    +++++++++++++                 ",
"                 +++++++++++++    +++++++++++++                 ",
"                ++++++++++++++    ++++++++++++++                ",
"                ++++++++++++++    ++++++++++++++                ",
"               @++++++++++++++    +++++++++++++++               ",
"               ++++++++++++++      ++++++++++++++               ",
"               +++++++++++++@      @+++++++++++++               ",
"              ++++++++++++++        ++++++++++++++              ",
"              @+++++++++++.          +++++++++++++              ",
"              ++++++++++++            @+++++++++++              ",
"              +++++++++++              ++++++++++++             ",
"             .++++++++++                 ++++++++++             ",
"             ++++++++.                    +++++++++             ",
"             +++++++                        +++++++             ",
"             ++++++                          ++++++             ",
"             ++++                              ++++             ",
"            +++                                  ++.            ",
"            .                                      @            "};
